<svg width="376" height="20" viewBox="0 0 376 20" fill="none" xmlns="http://www.w3.org/2000/svg">
<path d="M54.8283 -2.53796L55.7692 -2.69614L53.9382 -2.92292L54.8159 -3.08892C55.6961 -3.0874 56.8364 -2.83866 57.457 -2.97083C57.5328 -3.09879 56.5744 -3.13986 56.3298 -3.24181C56.1134 -3.34631 55.9368 -3.45013 55.8021 -3.55202C56.2814 -3.55092 56.8084 -3.52628 57.3517 -3.47953C58.0825 -3.40319 58.7994 -3.36607 59.4231 -3.37229C60.6986 -3.35167 61.9308 -3.37224 63.3175 -3.36771L62.8561 -3.67567L64.6433 -3.60362C64.8327 -3.58016 65.0585 -3.61789 65.2446 -3.58887C66.7934 -3.34329 67.4488 -3.47711 68.1923 -3.58807C68.3448 -3.61678 68.5284 -3.63822 68.7384 -3.65182C70.8046 -3.59299 72.6677 -3.24878 74.5284 -3.07207C74.8786 -3.02695 75.2145 -2.96904 75.5123 -2.90243C76.1595 -2.77295 76.8794 -2.66724 77.6062 -2.59497C78.3329 -2.52269 79.0433 -2.48616 79.6724 -2.48871C81.0636 -2.49157 82.6353 -2.40593 84.2355 -2.24008C84.7114 -2.18545 85.1875 -2.14941 85.6336 -2.13426C86.0798 -2.11911 86.4861 -2.12517 86.8266 -2.15207L87.9085 -1.97627C88.3774 -2.04761 88.972 -2.08675 89.6563 -2.09131C90.3406 -2.09587 91.1001 -2.06577 91.889 -2.00283C92.7296 -1.93455 93.5834 -1.88852 94.4556 -1.81634C96.2572 -1.67832 98.0106 -1.59392 99.6612 -1.56575C102.119 -1.48225 104.521 -1.4177 107.001 -1.31361C108.552 -1.26336 110.064 -1.23573 111.527 -1.23085C113.279 -1.21119 115.174 -1.11605 117.121 -0.950018C117.029 -0.794239 116.175 -0.840261 115.602 -0.845533C113.754 -0.871425 111.862 -0.938519 109.96 -0.988921C109.103 -1.0086 108.27 -1.01605 107.466 -1.01122C106.12 -1.01768 104.702 -1.05919 103.235 -1.13504C100.918 -1.2185 98.675 -1.25861 96.5289 -1.25498C96.3606 -1.24881 96.2065 -1.23788 96.069 -1.22236C96.0403 -1.20893 96.0346 -1.19198 96.0525 -1.17315C96.0704 -1.15433 96.1113 -1.13424 96.1712 -1.11484C96.2311 -1.09543 96.3081 -1.07735 96.3947 -1.06231C96.4814 -1.04728 96.5748 -1.0358 96.6661 -1.02897C97.5185 -0.9234 98.434 -0.810013 99.2378 -0.794063C99.2689 -0.792869 99.302 -0.790148 99.3347 -0.78609C99.3675 -0.782033 99.3991 -0.776742 99.4272 -0.770603C101.227 -0.54773 102.706 -0.585445 104.108 -0.549184C106.435 -0.451184 108.679 -0.405408 110.805 -0.412547C111.126 -0.412062 111.473 -0.399322 111.833 -0.374789C114.059 -0.275339 116.141 -0.264217 117.981 -0.341923C118.738 -0.361611 119.442 -0.405805 120.256 -0.406544C120.757 -0.409586 121.193 -0.437788 121.538 -0.489463C121.883 -0.541139 122.13 -0.615218 122.264 -0.707246C122.607 -0.658794 122.956 -0.615613 123.305 -0.57822C123.514 -0.556839 123.715 -0.551159 123.866 -0.562348C124.017 -0.573536 124.108 -0.600756 124.121 -0.638501C124.183 -0.744209 123.706 -0.797294 123.293 -0.842561C123.542 -0.865231 123.823 -0.878568 124.13 -0.88225C125.854 -0.906404 127.703 -0.877896 129.637 -0.797352C131.138 -0.700943 132.337 -0.779413 133.917 -0.643457C134.107 -0.619996 134.262 -0.65443 134.437 -0.662698C134.891 -0.706236 135.458 -0.716022 136.087 -0.6912C136.716 -0.666377 137.388 -0.607695 138.046 -0.520245C138.865 -0.759166 140.635 -0.486219 141.942 -0.461688C142.345 -0.340185 141.883 -0.361545 141.863 -0.328164C141.843 -0.294782 141.863 -0.328171 141.705 -0.347722C140.4 -0.175652 138.612 -0.138132 136.593 -0.240435C136.219 -0.240009 135.863 -0.232171 135.528 -0.216993C135.021 -0.19551 134.449 -0.197655 133.838 -0.223334C133.169 -0.242193 132.556 -0.233236 132.026 -0.196896C131.721 -0.197488 131.463 -0.179283 131.276 -0.143957C131.09 -0.108631 130.98 -0.0573284 130.957 0.00518023C131.161 0.0533705 131.386 0.0974645 131.625 0.135713C132.873 0.28673 134.118 0.34924 135.114 0.310944C136.847 0.244959 138.91 0.309349 140.753 0.286823C141.999 0.277698 143.325 0.303691 144.706 0.36432C144.706 0.36432 144.67 0.425519 144.666 0.431082C144.83 0.45758 145.001 0.478839 145.172 0.493644C145.172 0.493644 145.172 0.493645 145.188 0.465827C145.112 0.439112 145.01 0.413982 144.892 0.393344L144.482 0.342512C144.761 0.329283 145.021 0.289898 145.312 0.313962C145.924 0.358668 146.51 0.377542 147.033 0.369462C147.556 0.361381 148.006 0.326508 148.356 0.266939C148.976 0.19059 149.747 0.155872 150.619 0.165022C151.287 0.156686 151.931 0.138772 152.548 0.111367C152.548 0.111367 152.588 0.0446111 152.88 0.00912881C152.603 -0.0346331 152.315 -0.0703692 152.028 -0.0964382C150.779 -0.161568 149.526 -0.221133 148.299 -0.26566C147.847 -0.270471 147.422 -0.26301 147.032 -0.243424C145.952 -0.220505 144.738 -0.253035 143.462 -0.339115C143.462 -0.339115 143.21 -0.370393 143.084 -0.386033C143.442 -0.532787 144.676 -0.385869 145.176 -0.485254C145.479 -0.483446 146.014 -0.470948 145.996 -0.497113C145.954 -0.532026 145.949 -0.564463 145.981 -0.592091C146.013 -0.61972 146.082 -0.641861 146.181 -0.656921C146.281 -0.671984 146.409 -0.679596 146.558 -0.67921C146.706 -0.678822 146.87 -0.670442 147.038 -0.654682C148.443 -0.569418 149.767 -0.545706 150.928 -0.585001C151.368 -0.584244 151.861 -0.558972 152.298 -0.55265C152.565 -0.545034 152.81 -0.549269 153.017 -0.565121C154.072 -0.681863 155.492 -0.690389 157.064 -0.589418C157.824 -0.553115 158.533 -0.548262 159.157 -0.575103C159.6 -0.579906 159.788 -0.496907 160.104 -0.457806L161.444 -0.375382L159.723 -0.272102C160.091 -0.0354174 160.383 0.0426247 160.984 0.0573704C161.862 0.0796373 162.716 0.0896969 163.542 0.087487C164.153 0.0855414 164.658 0.034571 165.485 0.125104C165.631 0.139871 165.772 0.144649 165.884 0.138642C166.853 0.0582657 168.02 0.0398196 169.305 0.0845627C169.97 -0.0659458 171.103 0.0803877 172.152 0.198292C172.49 0.0849194 171.877 0.0328776 171.511 -0.0362977C172.388 -0.0292163 173.272 -0.0332602 174.177 -0.0167062C174.449 -0.0227315 174.76 -0.0124229 175.086 0.0134106C175.412 0.0392431 175.743 0.0798925 176.054 0.132182C176.205 0.165969 176.388 0.191396 176.564 0.203188C176.74 0.214977 176.896 0.212227 176.999 0.195506C177.469 0.146192 178.221 0.191613 178.61 0.108313C178.748 0.0891562 178.945 0.0864818 179.166 0.100759C179.387 0.115034 179.618 0.145336 179.817 0.186233C179.599 0.198993 179.405 0.219086 179.24 0.24607C178.645 0.333725 178.864 0.480188 179.619 0.693119C180.778 0.681409 181.962 0.684733 183.036 0.644603C183.635 0.608579 184.369 0.61984 185.155 0.677125C185.941 0.734407 186.748 0.835442 187.486 0.968864C187.753 1.02017 188.058 1.0557 188.339 1.06841C188.62 1.08112 188.858 1.07007 189.005 1.03745C189.096 0.999727 189.124 0.951984 189.087 0.898361L188.329 0.804525C188.329 0.804525 188.359 0.754453 188.366 0.743326L189.455 0.734912C190.031 0.73462 190.632 0.74937 191.177 0.745168C191.977 0.717224 192.891 0.732799 193.861 0.790928C194.756 0.850535 195.636 0.895589 196.492 0.925695C197.321 0.956682 197.922 0.857894 198.71 0.842118C199.307 0.830226 199.963 0.842935 200.654 0.879746C201.847 0.945035 202.942 0.945157 203.839 0.880098C204.885 1.23062 205.393 1.28761 206.364 1.1929L206.821 1.16584L206.946 1.24102L207.295 1.22449C207.947 1.20976 208.6 1.19504 209.281 1.18979C210.227 1.22232 211.25 1.30984 212.248 1.4438C212.437 1.46726 212.695 1.54697 212.861 1.60937C213.028 1.67178 213.39 1.86004 213.657 1.98259C213.366 2.07206 213.045 2.15761 212.814 2.26046C212.791 2.27803 212.793 2.29898 212.821 2.32163C212.848 2.34428 212.9 2.36799 212.972 2.39087C213.045 2.41374 213.135 2.43513 213.236 2.45333C213.338 2.47153 213.447 2.48602 213.556 2.49565C213.768 2.51639 213.978 2.53021 214.176 2.53656C215.151 2.5475 216.085 2.53937 216.969 2.51224C217.291 2.47398 217.733 2.47034 218.224 2.50192C218.715 2.5335 219.227 2.59848 219.678 2.68655C220.834 2.63368 222.178 2.6493 223.616 2.73233C225.137 2.68183 226.974 2.78396 228.395 2.67331C228.362 2.72895 228.509 2.82473 228.713 2.87992C229.037 2.96375 229.403 3.04144 229.797 3.1097L232.802 3.24297C232.914 3.3115 233.054 3.38087 233.221 3.45018C233.335 3.50493 233.534 3.55851 233.775 3.59955C234.017 3.64059 234.282 3.66588 234.514 3.67005C235.112 3.69035 235.613 3.64495 236.326 3.75713C235.228 3.86318 233.748 3.84909 232.148 3.71738C230.645 3.6172 229.199 3.56714 227.864 3.56904C227.424 3.56828 226.844 3.57413 226.707 3.63473C226.402 3.80599 225.605 3.77892 224.675 3.74733C223.944 3.71275 223.277 3.71663 222.727 3.75865C222.178 3.80068 221.763 3.87965 221.515 3.98907C221.453 4.09477 221.603 4.185 222.244 4.24651L224.911 4.49316C225.304 4.46145 225.676 4.42391 226.028 4.3807C226.619 4.32331 227.35 4.30756 228.163 4.33467C228.975 4.36178 229.848 4.43102 230.713 4.53701C231.155 4.59175 231.597 4.64649 231.918 4.62048C232.199 4.5906 232.458 4.55483 232.693 4.51343C232.74 4.48568 232.759 4.45374 232.749 4.41885C232.919 4.43507 233.089 4.45617 233.254 4.48141C234.57 4.77585 235.59 4.77075 236.516 4.69438C236.767 4.67168 236.958 4.63559 237.212 4.60733C237.466 4.57906 237.555 4.54238 237.786 4.55305C239.627 4.64962 240.157 4.32709 241.708 4.34004C241.783 4.32744 241.83 4.30861 241.844 4.28527C241.858 4.26194 241.838 4.23486 241.787 4.20652C241.677 4.18093 241.551 4.15893 241.418 4.14253C241.286 4.12613 241.152 4.11587 241.029 4.11268C240.315 4.07129 239.685 4.08398 239.246 4.14858C238.935 4.17498 238.605 4.19602 238.26 4.21157L236.706 3.7445C238.211 3.78732 239.634 3.78704 240.943 3.74367C241.228 3.71931 241.712 3.76127 242.114 3.76925L245.07 3.8129C245.678 3.81652 246.196 3.7433 247.043 3.91398C247.043 3.91398 247.603 3.94151 247.752 3.9182C247.902 3.8949 248.564 3.74995 248.959 3.65553C249.417 3.68245 250.052 3.75509 250.337 3.73074C250.836 3.67092 251.268 3.59423 251.625 3.50205L253.411 3.63364C253.409 3.75054 253.344 3.86051 253.216 3.96189C253.077 4.05966 253.082 4.17702 253.23 4.30437C253.379 4.43173 253.666 4.56546 254.07 4.69465L255.833 5.37885C256.121 5.42467 256.428 5.45551 256.712 5.46719C256.996 5.47887 257.243 5.47082 257.421 5.44413C258.18 5.3649 259.03 5.30296 259.788 5.22373C260.767 5.34494 260.515 5.54072 261.227 5.71245L263.531 5.99788C263.883 6.26238 264.241 6.51575 263.172 6.6043C262.96 6.61979 263.103 6.72114 262.909 6.76279C263.74 6.96129 264.654 7.02071 265.496 7.14297C265.828 7.23089 266.106 7.32397 266.316 7.41769C266.547 7.55882 267.014 7.70297 267.617 7.81904C268.221 7.9351 268.911 8.01375 269.54 8.03801C270.596 8.11232 271.676 8.22392 272.734 8.36782C273.095 8.41785 273.466 8.45432 273.822 8.47473C274.178 8.49515 274.511 8.49906 274.798 8.48619C275.821 8.46353 276.687 8.38562 277.34 8.25752C277.985 8.14881 278.855 8.09641 279.87 8.10508C281.607 8.32013 281.957 8.64418 283.008 8.9296L281.193 8.9616C281.127 9.07287 281.247 9.21317 280.503 9.2106C279.759 9.20803 280.136 9.3145 280.377 9.42201C280.462 9.4761 280.628 9.53173 280.847 9.5795C281.066 9.62726 281.324 9.66422 281.578 9.68412L283.123 9.82173C283.671 9.87411 284.201 9.89647 284.655 9.88637C285.109 9.87627 285.47 9.8341 285.698 9.76449C285.96 9.69838 286.321 9.65367 286.759 9.63308C287.317 9.57916 287.776 9.49896 288.119 9.39552L290.301 9.54623C290.393 9.44228 290.693 9.36939 291.149 9.3399C291.605 9.31039 292.189 9.32608 292.803 9.38432L294.273 9.47682C295.907 9.57774 296.266 9.54452 296.745 9.25145L294.784 8.72799C295.069 8.59011 295.344 8.46892 295.62 8.34772C295.131 8.17526 294.48 8.01215 293.731 7.87494C293.032 7.72751 292.314 7.58472 291.579 7.44712C290.781 7.30651 289.938 7.18425 288.948 7.02574C288.775 6.97447 288.524 6.88363 288.203 6.79612C287.882 6.71107 287.547 6.6277 287.199 6.54634C287.265 6.43507 287.324 6.33493 287.197 6.20576C287.807 6.24697 288.437 6.31906 289.031 6.41551C289.625 6.51197 290.163 6.62976 290.597 6.75827C290.67 6.78105 290.76 6.80246 290.86 6.82104C290.96 6.83961 291.068 6.85493 291.178 6.86594C292.249 6.9449 292.761 7.10985 293.285 7.3121C293.638 7.41549 294.093 7.50731 294.587 7.57481C295.534 7.69212 296.461 7.8428 297.367 7.97289C297.644 8.01623 297.932 8.05191 298.219 8.07845C299.166 8.16284 300.118 8.28084 301.029 8.42645C301.326 8.46346 301.611 8.51243 301.86 8.56928C302.11 8.62613 302.316 8.68919 302.462 8.75322C302.236 8.82336 302.115 8.9119 302.104 9.0135C302.065 9.08026 302.73 9.21636 303.044 9.31501C303.358 9.41365 302.742 9.36717 302.533 9.3771C301.674 9.39618 301.515 9.43617 302.029 9.65512C302.201 9.72396 302.315 9.79285 302.364 9.85749C302.413 9.92213 302.396 9.98116 302.315 10.0309C302.193 10.2367 301.821 10.4058 301.566 10.6071C301.962 10.7397 302.624 10.8814 302.696 11.0456C302.731 11.082 302.804 11.1206 302.91 11.1586C303.017 11.1965 303.154 11.2329 303.311 11.2651C303.727 11.3346 304.105 11.4177 304.416 11.508C304.726 11.5983 304.962 11.6933 305.104 11.7857C305.15 11.824 305.262 11.8645 305.418 11.8993C305.573 11.934 305.76 11.9604 305.942 11.9731C306.158 11.9887 306.352 11.9867 306.484 11.9674C306.615 11.948 306.673 11.913 306.647 11.8694C306.652 11.7874 306.624 11.702 306.561 11.6139C306.597 11.5527 306.634 11.4915 306.49 11.3901C307.138 11.4271 307.817 11.5012 308.455 11.6045C309.093 11.7077 309.664 11.836 310.108 11.9756C310.599 12.1199 311.051 12.2715 311.595 12.4404C311.483 12.6295 311.483 12.6295 312.64 12.964L318.779 13.1271L320.037 13.3486C321.21 13.5417 321.489 13.5284 322.226 13.4286L322.722 13.3348C323.764 13.4638 324.964 13.6124 325.615 13.3706C325.827 13.5282 325.965 13.5811 325.917 13.6051C325.606 13.8376 325.065 14.0349 324.317 14.1892C324.126 14.2253 323.992 14.2803 323.769 14.3125C323.052 14.4941 322.886 14.7747 323.304 15.097C323.512 15.2396 323.814 15.3856 324.2 15.5303C323.635 15.7312 322.887 15.8976 321.975 16.0252C321.201 16.1238 320.564 16.2559 320.082 16.4177C319.649 16.5809 319 16.7035 318.174 16.7786C317.754 16.8105 317.448 16.8735 317.286 16.9613C317.238 17.1989 317.349 17.4533 317.616 17.7188C317.667 17.7996 317.81 17.8869 318.035 17.9738C318.26 18.0607 318.56 18.1449 318.912 18.2197C318.912 18.2197 319.082 18.2766 319.163 18.3106C319.231 18.5983 318.977 18.8519 318.418 19.0543C318.326 19.1117 318.138 19.1532 317.875 19.1742C317.612 19.1953 317.283 19.1951 316.923 19.1738C316.164 19.1395 315.455 19.1353 314.721 19.116C313.93 19.0888 313.233 19.1102 312.704 19.1782C312.175 19.2461 311.833 19.3579 311.714 19.502C311.706 19.5427 311.683 19.5818 311.644 19.6188C311.622 19.6379 311.61 19.6584 311.608 19.68L313.294 20.1516L311.387 20.3393C311.275 20.5285 312.19 20.6419 312.649 20.7823L312.365 20.8607C312 20.905 311.508 20.8202 311.063 20.771L310.621 20.7163L310.568 20.8053C310.293 20.9265 309.29 20.7903 308.898 20.8791C308.507 20.968 308.786 21.0683 309.373 21.1648C309.78 21.2366 310.218 21.2938 310.653 21.3322C311.088 21.3706 311.509 21.3891 311.885 21.3864C312.109 21.3769 312.294 21.3552 312.431 21.3226C313.222 21.184 314.097 21.0648 315.048 20.966C315.777 20.8772 316.69 20.8395 317.723 20.8554C318.026 20.8487 318.391 20.8697 318.755 20.9147C319.119 20.9598 319.458 21.026 319.712 21.1017L320.247 21.1142C320.247 21.1142 320.539 21.1922 320.498 21.205C320.294 21.4362 320.531 21.7189 321.172 22.0111L320.614 22.0376C319.817 22.0105 320.323 22.1866 320.203 22.2734C319.637 22.257 318.901 22.1837 318.633 22.2938L318.231 22.2858L318.388 22.3054L318.579 22.2693L319.329 22.4338C318.974 22.4615 318.716 22.4953 318.403 22.5102C318.229 22.5231 318.091 22.546 317.997 22.5774C317.903 22.6088 317.854 22.6481 317.854 22.693C317.855 22.762 317.761 22.8201 317.582 22.8617C317.403 22.9033 317.145 22.9271 316.832 22.9307C316.458 22.9322 316.244 23.0072 316.025 23.0339L316.977 23.4862C316.977 23.4862 316.503 23.4275 316.761 23.5072L316.794 23.4516L317.371 23.5648C317.787 23.6641 318.077 23.6881 318.323 23.617C318.568 23.5459 318.512 23.6405 318.63 23.6133C318.587 23.6856 318.32 23.7361 318.091 23.7794C317.826 23.8134 317.527 23.8385 317.2 23.8541C317.79 24.1722 317.819 24.1816 316.956 24.2658C316.092 24.35 316.39 24.4765 315.668 24.4945C314.945 24.5126 315.767 24.7278 316.25 24.7697C316.609 24.7973 316.974 24.8403 317.321 24.8957C317.669 24.9511 317.99 25.0176 318.263 25.0906L318.118 25.3354C317.905 25.3152 317.692 25.2888 317.486 25.2572C316.786 25.1228 316.15 24.9962 315.527 25.0743L315.824 25.2604L313.651 25.1525C313.707 25.2919 314.039 25.4507 314.575 25.5953C314.494 25.6748 314.444 25.7585 314.426 25.8457C314.39 25.9069 314.176 25.8684 314.036 25.875C313.539 25.8853 313.13 25.9267 312.847 25.9958C312.564 26.0648 312.415 26.1594 312.412 26.2711C312.356 26.3656 313.121 26.5619 313.599 26.5554C314.793 26.5743 316.085 26.6471 317.403 26.7698C318.207 26.7857 318.32 26.537 319.643 26.7068C319.669 26.8216 319.5 26.9146 319.16 26.9717C318.821 27.0288 318.33 27.0468 317.761 27.0231C318.085 27.2782 319.875 27.3447 319.954 27.6113C319.508 27.5924 319.032 27.5481 318.571 27.4827C318.111 27.4173 317.682 27.3331 317.329 27.2383C317.252 27.215 317.157 27.1934 317.05 27.1757C316.944 27.158 316.83 27.1447 316.72 27.137C316.609 27.1293 316.506 27.1274 316.419 27.1316C316.332 27.1358 316.264 27.1459 316.222 27.161C316.47 27.2574 316.743 27.3688 317.054 27.473C317.365 27.5772 317.44 27.6223 317.664 27.6442C319.337 27.8514 320.133 28.2246 321.58 28.4696C321.959 28.5165 322.006 28.6657 321.678 28.6488C321.365 28.632 321.081 28.6342 320.86 28.6552C320.638 28.6762 320.486 28.7152 320.421 28.7679C320.178 28.8293 319.876 28.8782 319.521 28.9133C321.006 29.2963 322.776 29.6347 324.666 29.8968C325.023 29.9486 325.397 29.9801 325.73 29.9869C326.785 29.9872 327.904 30.0176 329.066 30.0774C329.477 30.0937 329.858 30.0922 330.186 30.0729C331.264 30.0272 332.12 30.1273 332.902 30.4092L334.195 30.8561C334.153 30.9284 333.935 31.009 333.768 31.1197L334.779 31.3584L342.492 30.8087L344.04 31.3409L346.261 31.3113C346.431 31.3267 346.602 31.3479 346.766 31.3739C347.215 31.531 347.566 31.682 348.053 31.8319C348.54 31.9818 349.411 32 350.018 32.1767C350.625 32.3534 351.232 32.357 351.983 32.462C352.054 32.5988 351.981 32.7219 351.769 32.8236C351.7 32.9405 351.318 33.0127 351.252 33.1239C351.26 33.2364 351.118 33.3319 350.84 33.4017C350.562 33.4715 350.156 33.5135 349.66 33.5239C348.27 33.7633 346.594 33.9338 344.683 34.0302C344.515 34.0372 344.376 34.0534 344.274 34.0778C344.172 34.1022 344.11 34.1342 344.091 34.1719C344.094 34.281 343.966 34.3753 343.718 34.4479C343.47 34.5205 343.107 34.5695 342.656 34.5914C342.536 34.5958 342.446 34.6095 342.396 34.6308C342.225 34.6445 342.1 34.6708 342.034 34.7071C341.968 34.7435 341.963 34.7886 342.019 34.8381C342.074 34.8877 342.19 34.94 342.353 34.99C342.516 35.04 342.722 35.086 342.951 35.1235C343.283 35.1841 343.622 35.242 343.966 35.2971C343.947 35.3305 343.605 35.3359 343.654 35.3659C343.79 35.4619 343.821 35.5519 343.746 35.6286C343.671 35.7054 343.492 35.7668 343.223 35.8082L345.066 36.5859C346.185 36.6936 347.283 36.8763 348.151 37.0993C348.152 37.1358 348.102 37.1664 348.006 37.1881C347.91 37.2097 347.771 37.2216 347.603 37.2226C347.153 37.2385 346.728 37.2695 346.243 37.2871C345.947 37.3002 345.7 37.3291 345.518 37.3721C345.335 37.4151 345.221 37.4714 345.18 37.5376L346.262 37.8269C345.916 37.8974 345.658 37.9312 345.429 37.9745C345.559 38.0655 345.782 38.1595 346.082 38.2494C346.381 38.3393 346.748 38.4226 347.155 38.4929C347.265 38.5074 347.376 38.518 347.483 38.5241C347.59 38.5301 347.69 38.5315 347.778 38.5282C348.617 38.429 349.597 38.6042 350.549 38.7699C351.502 38.9356 352.019 39.0355 352.722 39.1644L354.067 39.1817C354.407 39.2427 354.711 39.3144 354.954 39.3912C355.197 39.4679 355.372 39.5475 355.465 39.6236C355.393 39.746 354.755 39.679 354.375 39.6916C353.473 39.7678 352.287 39.7515 351.013 39.6455C350.698 39.6064 350.374 39.638 350.067 39.6417C349.404 39.657 348.767 39.6818 348.159 39.716C347.758 39.7479 347.384 39.7873 347.038 39.834C346.946 39.9898 348.4 40.1101 347.575 40.1871C347.859 40.2223 347.965 40.2713 348.111 40.2536C349.047 40.3547 349.969 40.4047 350.771 40.3978C352.309 40.3763 354.055 40.4473 355.867 40.6049C357.822 40.7683 359.698 40.8368 361.339 40.805C361.965 40.8032 362.663 40.8366 363.383 40.9028C364.232 40.9945 365.075 41.0521 365.858 41.072C366.117 41.0727 366.406 41.0883 366.7 41.1175C366.995 41.1468 367.288 41.1888 367.554 41.2403C367.531 41.2792 367.277 41.3075 367.334 41.3264C368.144 41.6179 368.472 41.9213 369.719 42.2191C370.571 42.3246 371.55 42.4458 372.107 42.3059C372.665 42.1659 372.465 42.0456 371.356 41.6872C371.596 41.6821 371.886 41.6988 372.175 41.7345C372.463 41.7703 372.732 41.8227 372.934 41.8827L373.894 42.1509L374.758 42.4072C374.682 42.5352 374.623 42.6353 374.56 42.7411C374.461 42.8533 374.57 42.99 374.871 43.1319C375.052 43.2093 375.211 43.2868 375.344 43.3636C375.884 43.6707 376.041 43.961 375.796 44.2019C375.326 44.5483 374.672 44.867 373.842 45.1543C372.965 45.4338 372.484 45.7864 371.762 46.0911C371.393 46.2298 370.945 46.3541 370.423 46.4627C369.433 46.7044 368.348 46.9343 367.354 47.1815C366.36 47.4286 365.238 47.6062 364.135 47.8099C362.492 48.0517 360.716 48.2605 358.817 48.4352C357.642 48.5883 356.435 48.7374 355.348 48.9134C354.064 49.1117 352.556 49.2541 350.861 49.337C349.364 49.4363 348.026 49.5832 346.874 49.7748C346.753 49.7956 346.658 49.8219 346.59 49.8532C346.383 50.0486 345.801 50.1863 344.935 50.2453C344.987 50.3025 345.055 50.3607 345.136 50.4196C345.257 50.4898 345.282 50.5554 345.208 50.6081C345.135 50.6607 344.966 50.698 344.724 50.7149C344.031 50.7633 343.455 50.8455 343.021 50.9579C342.862 50.986 342.763 51.0271 342.733 51.0775C342.704 51.1279 342.743 51.1861 342.85 51.2472C342.944 51.31 342.951 51.3678 342.87 51.4131C342.788 51.4585 342.623 51.4892 342.394 51.5013C341.807 51.5608 341.179 51.6086 340.513 51.6446C339.096 51.7238 337.449 51.7228 335.669 51.6418C335.48 51.6183 335.289 51.6544 335.068 51.627C333.809 51.5362 332.641 51.5221 331.703 51.5865C330.604 51.6116 329.455 51.6066 328.295 51.6184C326.621 51.6105 325.076 51.6583 323.704 51.7604C322.136 51.6617 321.255 51.8333 319.931 51.8366C318.709 51.8542 317.551 51.8964 316.468 51.963C314.721 52.0512 312.981 52.1283 311.259 52.2316C309.644 52.2808 308.157 52.3749 306.823 52.5123C306.312 52.5743 305.387 52.4777 305.038 52.6077C304.69 52.7378 303.988 52.7224 303.42 52.7656L301.628 52.8722C301.32 52.8975 300.982 52.9136 300.617 52.9201C298.952 52.9288 297.798 53.1025 296.252 53.1379L296.094 53.1184C293.349 53.3765 290.208 53.5182 286.763 53.5393C284.751 53.6185 282.55 53.6147 280.415 53.6727C279.905 53.7888 278.703 53.6457 278.064 53.7517C277.425 53.8577 276.381 53.7883 275.558 53.8057C274.734 53.8231 273.929 53.8667 273.049 53.8652C272.284 53.8657 271.639 53.913 271.171 54.0029C270.103 54.1515 268.802 54.2388 267.325 54.261C265.37 54.2996 263.522 54.3873 261.534 54.368C261.563 54.4763 261.441 54.5684 261.181 54.6349C260.921 54.7014 260.533 54.7398 260.056 54.7463C257.931 54.7876 256.003 54.8952 253.849 54.9271L253.273 54.9274L246.831 54.9895C245.096 55.0015 243.424 55.0214 241.654 55.035C240.991 54.9529 240.975 55.0943 240.516 55.0673C240.388 54.9977 240.237 54.967 240.011 55.0048L239.961 55.0882L232.61 55.1989C229.732 55.2799 226.704 55.3042 223.553 55.2716C222.805 55.2798 222.108 55.3074 221.471 55.3541C220.88 55.3711 220.265 55.3787 219.628 55.3766C218.766 55.3556 217.924 55.345 217.105 55.3448C214.951 55.3767 212.691 55.3595 210.332 55.3362C207.974 55.3128 206.187 55.3543 204.088 55.3511C202.667 55.3482 201.252 55.3342 199.78 55.3013C199.078 55.2859 198.212 55.2026 197.485 55.1722C196.757 55.1418 196.52 55.1423 196.424 55.1901C196.107 55.3241 195.311 55.2374 194.675 55.2244C193.434 55.2021 193.258 55.1564 192.921 54.8101L194.443 54.7C194.817 54.6645 195.286 54.6583 195.806 54.6819C196.326 54.7055 196.88 54.7582 197.413 54.835C197.623 54.8678 197.843 54.8938 198.059 54.9114C198.276 54.929 198.485 54.9378 198.674 54.9374C200.21 54.9186 201.725 54.8792 203.201 54.8471L203.417 54.826L203.43 54.5172C203.235 54.4868 203.033 54.4618 202.831 54.4429L195.426 54.2425C193.727 54.1933 191.963 54.0823 190.296 54.037C188.628 53.9917 187.729 53.964 186.436 53.9172C185.89 53.8906 185.333 53.8556 184.769 53.8124C184.802 53.7827 184.821 53.751 184.826 53.7178C184.855 53.6678 184.895 53.601 184.655 53.5474C184.394 53.4719 184.045 53.4073 183.678 53.3667C183.333 53.3399 182.999 53.3247 182.688 53.3217C181.186 53.2958 179.471 53.1327 177.908 52.8671L177.363 53.0444C175.016 52.9448 172.634 52.8468 170.182 52.7522C169.691 52.7264 169.176 52.6769 168.675 52.6074C168.139 52.5409 167.645 52.4021 167.08 52.3262C166.522 52.2715 165.967 52.2289 165.427 52.1991C165.573 52.1535 165.766 52.117 165.999 52.0909C166.229 52.0817 166.396 52.0532 166.477 52.0095C166.558 51.9658 166.548 51.9092 166.448 51.8479C166.274 51.7426 166.197 51.6435 166.577 51.6309C166.928 51.6069 167.18 51.5549 167.302 51.4811C167.423 51.4073 167.41 51.3148 167.264 51.2144C167.2 51.1557 167.155 51.0982 167.129 51.0424L166.971 51.0228C166.451 50.815 165.411 50.7399 164.664 50.5699C164.312 50.5205 163.947 50.4922 163.628 50.4892C162.802 50.4527 161.998 50.4367 161.145 50.3907C160.737 50.3695 160.31 50.3309 159.89 50.2772C159.29 50.2029 159.227 50.1951 158.879 49.925C159.42 49.9297 159.849 49.8894 160.093 49.8108C160.337 49.7322 160.382 49.6202 160.219 49.4938C159.773 49.2175 159.301 48.9263 157.283 48.73C157.941 48.7203 158.575 48.7011 159.181 48.6724C159.357 48.6663 159.489 48.646 159.559 48.6143C159.629 48.5826 159.634 48.541 159.573 48.4951C159.511 48.4492 159.387 48.4011 159.216 48.3574C159.046 48.3137 158.837 48.2763 158.618 48.2503C157.552 48.0941 156.441 47.9895 155.408 47.9484C154.538 47.9302 153.752 47.9404 152.736 47.9399L151.536 47.7913C151.556 47.7579 151.38 47.7122 151.424 47.6939C151.729 47.5226 152.066 47.3553 152.412 47.1712C151.859 47.0718 151.38 46.9519 151.029 46.825C150.679 46.6982 150.472 46.5696 150.431 46.4541C150.401 46.4192 150.409 46.3874 150.454 46.361C150.499 46.3346 150.58 46.3142 150.691 46.3012C151.007 46.2788 151.251 46.2361 151.403 46.1764C151.556 46.1166 151.614 46.0414 151.573 45.9565L150.64 45.6439C147.831 45.4208 145.073 45.2615 142.416 45.1688L140.017 45.0987C139.728 45.015 139.818 44.9784 140.09 44.9763C140.362 44.9741 141.128 44.9973 141.663 45.0098C142.125 45.0262 142.535 45.0154 142.854 44.9785C143.172 44.9416 143.389 44.8798 143.482 44.7992L142.677 44.4426C142.716 44.3759 142.772 44.2813 143.209 44.2876C143.508 44.2799 143.727 44.2463 143.833 44.1922C143.939 44.1382 143.925 44.0668 143.792 43.9896C143.772 43.9338 143.802 43.8829 143.881 43.8394C144.527 43.8358 145.17 43.8377 145.756 43.8208C146.029 43.8151 146.26 43.7945 146.432 43.7602C146.605 43.7259 146.715 43.6787 146.755 43.622C146.776 43.5666 146.725 43.5035 146.605 43.4378C146.485 43.3721 146.3 43.3057 146.064 43.2438C145.146 43.1673 144.305 43.1663 143.728 43.2411C143.522 43.2997 143.191 43.3317 142.779 43.3329C142.367 43.3341 141.893 43.3044 141.419 43.2478C140.877 43.1825 140.336 43.1538 139.894 43.1669C139.451 43.1799 139.136 43.2339 139.005 43.319C138.449 43.286 137.955 43.2607 137.469 43.2243C136.894 43.1784 136.352 43.1648 135.899 43.1852C135.175 43.1995 134.394 43.1911 133.576 43.1602C131.215 43.0828 128.852 43.0111 126.567 42.9789C125.962 42.9697 125.439 42.9945 124.841 42.9742C124.243 42.9539 123.77 43.0087 123.022 42.8982C122.88 42.881 122.737 42.87 122.604 42.866C122.471 42.862 122.352 42.8651 122.257 42.875C120.944 42.9624 119.404 42.9748 117.728 42.9114C115.433 42.8958 113.053 42.8519 110.755 42.8419C110.08 42.8505 109.443 42.8735 108.85 42.9106C108.399 42.9331 107.926 42.9483 107.434 42.9562C107.057 42.9632 106.696 42.9425 106.76 43.0638C106.823 43.1852 106.259 43.1092 105.933 43.0868C104.814 43.028 103.671 42.9483 102.516 42.8487C101.378 42.7405 100.262 42.6775 99.2369 42.6636C98.4962 42.6554 97.7324 42.6863 96.7801 42.5205C96.8164 42.4593 96.8526 42.3981 97.0599 42.3342C96.2833 42.1584 95.3972 42.0071 94.475 41.8929C93.5527 41.7787 92.6207 41.7048 91.7562 41.6773L90.564 41.3446C90.2705 41.3055 89.9708 41.277 89.6832 41.2609C89.3957 41.2448 89.1262 41.2414 88.8912 41.2508C88.7097 41.2557 88.4884 41.2433 88.268 41.216C88.0476 41.1887 87.843 41.1483 87.6916 41.1023C87.4652 41.0437 87.1887 40.9931 86.8967 40.957C86.6046 40.9208 86.3101 40.9006 86.0499 40.8989C85.2308 40.8627 84.3564 40.7792 83.5163 40.6568C83.2983 40.5851 83.1617 40.5109 83.1233 40.4436C83.085 40.3762 83.1466 40.3186 83.3005 40.2777C83.5487 40.2056 83.688 40.1137 83.7101 40.0077C83.7322 39.9016 83.6366 39.7835 83.429 39.6606C83.3227 39.5852 83.2872 39.5137 83.3246 39.4506C83.362 39.3875 83.4716 39.334 83.6466 39.2934C84.3001 39.1056 84.1253 39.0004 83.0561 38.6888C82.8825 38.6369 82.6731 38.5883 82.4413 38.5462C82.2096 38.5042 81.9605 38.4695 81.7099 38.4444C81.1219 38.3936 80.5419 38.3559 79.9806 38.3318C79.6649 38.2927 79.3412 38.3242 78.9774 38.3091C77.1586 38.2331 76.8924 38.1105 76.3034 37.8465L75.8741 37.656C75.0779 37.5016 74.2072 37.3735 73.3246 37.2807C72.442 37.1879 71.5696 37.1328 70.7702 37.1194C70.4524 37.1184 70.0871 37.092 69.7302 37.0443C68.5688 36.8985 67.3927 36.7976 66.2797 36.7483C65.5861 36.7206 64.8385 36.6488 64.1266 36.5415C63.4147 36.4343 62.7687 36.2962 62.2664 36.1438C61.8152 36.0065 61.2249 35.8833 60.5777 35.7913C59.82 35.6975 59.7498 35.5873 60.1729 35.5023C60.596 35.4174 61.3047 35.308 61.9337 35.2187C62.1526 35.1884 62.2882 35.139 62.3254 35.0762C62.3627 35.0133 62.3001 34.9394 62.1447 34.8627C62.0449 34.7314 62.0276 34.6068 62.0932 34.492C62.1283 34.4443 62.1041 34.3896 62.0222 34.3315C61.9404 34.2735 61.8028 34.2135 61.6187 34.1557C61.4346 34.0978 61.2084 34.0433 60.9552 33.996C60.702 33.9486 60.4277 33.9095 60.1509 33.8812C58.9828 33.7365 57.8463 33.5957 56.6551 33.49C56.1559 33.4402 55.6572 33.3784 55.1713 33.3062C54.1766 33.1277 53.1125 32.9797 52.0407 32.8707C51.532 32.822 51.0347 32.7368 50.6563 32.6336C49.463 32.3555 48.3635 32.0631 47.3776 31.7617C47.1399 31.6682 46.8291 31.577 46.4643 31.4938C46.0996 31.4106 45.6889 31.3372 45.2581 31.2782C44.9109 31.2352 44.6282 31.1405 44.3605 31.0775C44.166 30.9316 44.1452 30.7966 44.3001 30.6852C44.4551 30.5738 44.7806 30.4897 45.2462 30.4407C45.6877 30.3819 46.1009 30.3136 46.4825 30.2415C46.9426 30.1831 47.4895 30.1481 48.103 30.1376C48.8295 30.1063 49.3668 30.0167 49.6447 29.8806C47.6557 29.6343 45.7643 29.2806 44.021 29.3633L42.6964 29.1395C42.7491 29.0505 42.7953 28.9726 42.8381 28.9003C43.1532 28.7686 43.2516 28.6026 43.125 28.4162C43.0206 28.3261 43.0301 28.2441 43.1523 28.1785C43.2745 28.1129 43.5051 28.066 43.8209 28.0426C45.6915 27.8025 47.8546 27.6404 49.6088 27.368C50.1588 27.3169 50.8027 27.2936 51.5133 27.2993C52.2008 27.2829 52.172 27.1599 51.3809 27.0082C50.9368 26.9289 50.4842 26.8529 50.0247 26.7805C47.9986 26.7684 47.1732 27.132 44.8611 27.0308L43.7895 26.5517C43.4997 26.5443 43.2184 26.5414 42.9475 26.543L39.0706 26.7376C38.7477 26.7474 38.4963 26.7807 38.3451 26.8337C38.1939 26.8868 38.1488 26.9575 38.215 27.0378C38.2412 27.136 38.1878 27.2261 38.0567 27.3048C37.9722 27.3599 38.0263 27.4332 38.2071 27.5086C38.6147 27.6785 38.0917 27.7033 37.7614 27.746C37.677 27.7502 37.5797 27.7497 37.475 27.7447C37.3704 27.7396 37.2606 27.7301 37.1519 27.7167C37.0432 27.7032 36.9379 27.6861 36.842 27.6663C36.7462 27.6465 36.6616 27.6244 36.5934 27.6013C36.0114 27.4397 35.5024 27.2691 34.9304 27.0908C35.3365 26.9201 34.8587 26.64 35.4924 26.4856C35.5633 26.4547 35.5916 26.4171 35.5757 26.3751C35.5599 26.3331 35.5 26.2875 35.4 26.2412C35.1419 26.1217 35.019 26.0051 35.0437 25.9033C35.0683 25.8015 35.2396 25.7181 35.5403 25.6614L35.5766 25.6002C34.7835 25.3945 34.9936 25.2115 34.6822 24.9938L33.9193 24.8515C32.0213 24.5089 32.018 24.5145 30.3839 24.5271C30.0545 24.3967 30.473 24.3769 30.7868 24.362L33.4151 24.2157C35.1334 24.118 36.9018 24.0504 38.8214 24.0134C40.741 23.9765 42.8811 23.8533 44.8652 23.7647C44.9655 23.7578 45.0423 23.7442 45.089 23.7251C45.1357 23.7059 45.151 23.6817 45.1338 23.6546C45.0549 23.6252 44.9516 23.5969 44.8317 23.5717C44.7117 23.5465 44.5781 23.5251 44.4406 23.509C43.8092 23.4308 43.1613 23.3804 42.4885 23.315L41.2341 23.2015L40.8482 23.0522C40.5971 22.9613 40.4255 22.8505 40.0914 22.7852C39.8161 22.7366 39.5172 22.6996 39.2259 22.6782C38.9346 22.6569 38.6616 22.6518 38.4352 22.6637C37.8076 22.6935 37.2398 22.7366 36.6405 22.7759C36.0411 22.8151 35.7108 22.8578 35.1911 22.877C34.1352 22.8858 33.1147 22.9089 32.1341 22.9463C31.3082 23.0348 30.5442 23.1397 29.8471 23.2602C29.4122 23.3079 29.0055 23.365 28.2629 23.3029C27.9106 23.2466 27.6067 23.1726 27.4051 23.0941C27.2035 23.0155 27.1173 22.9375 27.1617 22.8739C27.2015 22.824 27.3143 22.7846 27.4894 22.7592C27.6645 22.7339 27.8961 22.7235 28.1624 22.7291C28.9078 22.7199 29.5971 22.6891 30.2164 22.6371C31.0783 22.543 32.1276 22.5024 33.303 22.5178C33.7016 22.5313 33.9688 22.4808 34.3175 22.4643C34.6662 22.4477 34.9616 22.4067 35.3503 22.4369C36.558 22.5148 37.137 22.3954 37.8607 22.3179C38.1057 22.2835 38.2575 22.2279 38.2994 22.1572C38.3413 22.0865 38.2717 22.0035 38.0982 21.9173C37.7641 21.7456 37.3555 21.5729 36.8787 21.402C36.6333 21.3179 36.3189 21.2381 35.9601 21.1689C35.6014 21.0996 35.208 21.0426 34.811 21.0025C34.5733 20.8974 34.4466 20.794 34.4421 20.7017C34.4377 20.6093 34.5557 20.5311 34.7855 20.4739C35.3712 20.3433 35.8904 20.2106 37.2026 20.2835C37.8196 20.3114 38.4002 20.3167 38.9215 20.2993C40.0776 20.2755 41.4112 20.3277 42.7966 20.4508C43.155 20.4824 43.5073 20.5039 43.8431 20.5147C46.2381 20.5904 48.5201 20.6282 50.8086 20.6548C52.021 20.6676 53.2432 20.6638 54.5089 20.7011C57.4769 20.782 60.1786 20.7404 63.0434 20.7668C64.5438 20.7803 65.8868 20.7258 67.0019 20.6061C67.219 20.5659 67.4055 20.5191 67.5592 20.4661C66.8203 20.327 66.0086 20.2169 65.202 20.1462C64.3953 20.0756 63.6207 20.0469 62.9524 20.0627C62.585 20.1017 62.1101 20.1088 61.5807 20.0833C61.0513 20.0578 60.4882 20.0007 59.9542 19.9183L61.5068 19.8717C62.5363 19.85 63.5908 19.8432 64.5921 19.8119C66.1828 19.7581 67.6571 19.672 69.3043 19.6371C70.6342 19.6051 71.8243 19.5231 72.8372 19.3939C73.569 19.2996 74.4047 19.2328 75.3274 19.1947C75.9833 19.1744 75.9833 19.1744 76.4026 18.9815C76.07 18.8567 75.6398 18.8392 75.2346 18.8368C72.8052 18.7583 70.4932 18.7445 68.3458 18.7958C67.2623 18.8004 66.3011 18.8533 65.5084 18.952C65.3142 18.9937 64.8176 18.9739 64.419 18.9604C63.1693 18.9398 61.975 18.9458 60.8502 18.9783C59.2952 19.0324 57.5633 19.0195 55.7218 18.9403C55.3726 18.8433 55.7745 18.8513 55.7943 18.8179C57.2206 18.7556 58.6186 18.6839 60.0732 18.6312C60.4708 18.6124 60.8958 18.6031 61.3435 18.6034C63.0147 18.6361 64.4074 18.5455 65.3264 18.3442C65.3725 18.2663 65.9771 18.2755 66.2442 18.225C66.3756 18.1813 66.4632 18.1298 66.5042 18.0721C66.115 17.9283 65.6749 17.9275 65.3362 17.9274C64.3531 17.9434 63.4073 17.9739 62.5035 18.0185C61.6633 18.061 60.7332 18.0723 59.7385 18.0523C59.0044 18.033 58.3768 18.0628 57.6361 18.0546C57.2343 18.0375 56.8184 18.0101 56.3968 17.9728C56.8662 17.8726 57.5042 17.811 58.266 17.7923C58.8437 17.7324 59.566 17.7144 59.6583 17.5586C59.3855 17.4472 59.0816 17.4454 58.8375 17.4569C58.3294 17.4565 57.8387 17.4635 57.3679 17.478C56.3695 17.5096 55.2886 17.5101 54.1478 17.4793C53.547 17.4678 52.977 17.4712 52.4473 17.4896C51.2467 17.5141 50.0961 17.5687 48.9968 17.5938C46.745 17.6195 44.6912 17.7115 42.5275 17.76C42.046 17.772 41.6143 17.8141 40.9796 17.7415C40.3449 17.6688 40.3167 17.6594 40.2417 17.6142C40.0641 17.539 40.0103 17.466 40.0914 17.4105C40.2173 17.3586 40.4626 17.3297 40.7835 17.329C42.7177 17.2465 44.5523 17.1306 46.2757 16.982C47.0341 16.9523 47.6986 16.8916 48.2461 16.8021C48.6803 16.7404 49.1953 16.6996 49.775 16.6809C50.6182 16.6363 51.4972 16.6037 52.4085 16.5831C52.8325 16.572 53.193 16.539 53.4689 16.4859C53.7447 16.4329 53.9303 16.361 54.0147 16.2744L52.8975 15.9867C52.722 15.9733 52.5479 15.9617 52.3759 15.952L43.1034 16.1592L42.1851 16.1649C41.1787 16.1477 40.9327 16.1053 39.978 15.7721C42.1568 15.6937 43.8695 15.4652 44.9456 15.1093C44.687 15.0711 44.4219 15.0382 44.1564 15.0116C42.4152 14.9274 40.7692 14.9051 39.2819 14.9454C38.3984 14.9494 37.49 14.9384 36.5783 14.933C36.8449 14.7689 37.8664 14.8178 38.5322 14.7808C40.123 14.723 41.5297 14.6034 42.7074 14.426C43.1134 14.3569 43.6214 14.3126 44.208 14.2954C44.7951 14.2894 45.2855 14.2476 45.6366 14.1734C45.9877 14.0993 46.1887 13.9951 46.2222 13.87C46.2775 13.7567 46.3967 13.6515 46.578 13.5558C46.2573 13.42 45.7481 13.29 45.1459 13.1901C44.5437 13.0902 43.89 13.0274 43.3074 13.0133C42.0636 12.9574 40.7735 12.8659 39.47 12.7411C38.8207 12.6782 38.184 12.642 37.6013 12.6351C37.0874 12.6297 36.5032 12.5843 35.938 12.5056C35.3728 12.427 34.8574 12.3195 34.4706 12.1996C33.9485 12.0513 33.4612 11.9014 32.974 11.7514C32.4868 11.6015 31.9214 11.4121 31.3526 11.2281C30.8511 11.1994 30.3628 11.1809 29.8943 11.1729C29.5298 11.1797 29.1044 11.1596 28.6684 11.1152C28.2324 11.0707 27.8039 11.0036 27.4336 10.9219C27.6508 10.8413 27.8964 10.7702 28.155 10.6768C27.8 10.5535 27.5426 10.4278 27.3984 10.3073C27.2543 10.1868 27.2265 10.074 27.3167 9.97582C27.3694 9.8868 26.9835 9.73747 26.8501 9.61943C26.6784 9.51767 26.6462 9.42271 26.7576 9.34699C26.869 9.27127 27.1188 9.21833 27.4744 9.19511C27.9154 9.15226 28.2743 9.08773 28.5364 9.00416C28.6231 8.98247 28.6672 8.95276 28.6648 8.91775C28.6623 8.88274 28.6133 8.84355 28.5223 8.80376C28.4312 8.76398 28.3011 8.72486 28.1437 8.68999C27.9863 8.65512 27.8067 8.62561 27.6213 8.60417C27.0534 8.54337 26.4894 8.50396 25.9617 8.4882C25.0527 8.45922 24.1824 8.44102 23.3509 8.43359C22.4313 8.4224 21.4083 8.35339 20.3857 8.23355C19.4701 8.12016 18.6493 8.01849 18.2016 7.8018C17.754 7.58512 17.0382 7.59202 16.4878 7.43428C16.797 7.29208 17.3465 7.19329 18.0809 7.14786C18.5615 7.13164 18.9626 7.08908 19.2586 7.02289C19.5546 6.95671 19.7389 6.86837 19.7997 6.76354L18.1288 6.32369C16.7944 6.11661 16.0561 6.27599 14.6142 6.19297L16.0998 6.0306C16.1297 6.01455 16.1409 5.9957 16.1328 5.97496C15.9886 5.64655 15.7591 5.57633 14.2404 5.39421L13.3881 5.28864L12.039 5.16336C11.8229 5.09605 11.6735 5.02587 11.6056 4.95982C11.5377 4.89377 11.5537 4.83417 11.6521 4.78699C11.8498 4.70763 11.9098 4.60623 11.8269 4.49211C11.696 4.41652 11.6852 4.34684 11.7963 4.29515C11.9074 4.24345 12.1334 4.21302 12.4351 4.20914C12.6759 4.20312 12.6938 4.11576 12.8248 4.06629C12.9549 3.99811 13.1777 3.94579 13.4778 3.91289C13.778 3.87999 14.1485 3.86728 14.5643 3.87564C15.79 3.88247 16.9415 3.85688 17.9983 3.79931L17.8088 3.77585C18.9103 3.82639 19.9401 3.83251 20.848 3.79394C21.7578 3.74539 22.9255 3.77653 23.8919 3.74692C24.6786 3.75372 25.2776 3.68652 25.5617 3.55959C25.8368 3.4384 26.8367 3.46668 27.6024 3.48985C28.0559 3.50484 28.4943 3.51119 28.9128 3.50883C29.4745 3.4814 30.1768 3.50725 30.9026 3.58209C31.1204 3.60509 31.3349 3.61726 31.5256 3.61743C33.3707 3.64889 35.2125 3.6859 37.0327 3.70232C37.4529 3.69287 37.9455 3.71452 38.4529 3.76474C38.6661 3.78654 38.8737 3.79558 39.0476 3.79062C41.9237 3.74074 45.1692 3.868 47.9888 3.79918C48.3305 3.78292 48.7088 3.77954 49.1131 3.78913C50.0214 3.82956 50.8101 3.80354 51.3596 3.71503C51.6561 3.66795 52.0362 3.64201 52.4757 3.63885C52.9151 3.6357 53.4043 3.65541 53.912 3.69672C54.7569 3.75142 55.5378 3.75735 56.1723 3.71389C57.4093 3.67374 58.7102 3.65723 60.0648 3.66449C60.4798 3.67151 60.8446 3.65591 61.131 3.61888C61.4174 3.58186 61.6176 3.52441 61.7162 3.45098C61.3835 3.32617 61.0198 3.31099 60.6744 3.32196C59.3358 3.29352 58.0004 3.25951 56.6867 3.24611C55.5109 3.20782 54.3827 3.19612 53.3187 3.21117C52.7904 3.22815 52.1311 3.18944 51.4848 3.10348C50.6927 2.99462 49.8769 2.94054 49.2023 2.95217C48.7022 2.95506 48.1743 2.94568 47.6262 2.92418C47.2754 2.89824 46.9159 2.85371 46.5844 2.79515C46.4529 2.76972 46.3098 2.74833 46.1641 2.73236C46.0185 2.71639 45.8737 2.7062 45.7389 2.70242C45.604 2.69864 45.4819 2.70135 45.3808 2.71041C45.2796 2.71946 45.2014 2.73464 45.1511 2.75498C44.6437 2.92504 43.509 2.83826 42.5374 2.81945C41.0814 2.53162 39.9978 2.70198 38.637 2.53941C38.5294 2.52863 38.4233 2.5221 38.3254 2.52024C38.2274 2.51838 38.1396 2.52121 38.0673 2.52857C35.4338 2.62642 32.3645 2.54487 29.5996 2.57866C29.2947 2.5836 28.9408 2.56667 28.5781 2.52978C26.2078 2.28564 23.9289 2.21632 22.1869 2.3354C21.9749 2.34612 21.7338 2.34658 21.4745 2.33675C20.2834 2.23972 19.1444 2.20103 18.1526 2.22392C16.5981 2.21653 15.1036 2.22252 13.5241 2.20009C12.4354 2.16818 11.4803 2.20227 10.7545 2.29898C10.7314 2.33793 10.2479 2.29596 9.87756 2.2919C9.66457 2.19385 9.47991 2.1053 9.26032 2.01838C9.06402 1.91085 8.76997 1.80203 8.39819 1.69932C8.02641 1.5966 7.58562 1.50239 7.10551 1.42304C6.28469 1.32138 6.2026 1.17386 6.77696 1.11958C8.25739 0.940019 10.1189 0.866526 12.2248 0.904497C13.9851 0.907531 15.7771 0.914482 17.5624 0.932555C18.6038 0.948059 19.7015 0.982496 20.7146 0.988526C21.0564 1.00178 21.4076 1.0213 21.7644 1.04689C22.2023 1.08399 22.6274 1.10421 23.0169 1.10646C24.2675 1.07521 25.6632 1.10243 27.1374 1.18682C27.6774 1.20522 28.1959 1.21142 28.6852 1.20533C29.8429 1.18243 31.0979 1.19928 32.417 1.25546C33.2369 1.28714 34.0319 1.3037 34.7937 1.30498C35.0628 1.30844 35.2819 1.28183 35.541 1.30198C37.8221 1.51283 39.4373 1.36053 41.4902 1.44161C42.488 1.46422 43.4413 1.46428 44.3367 1.44181C46.084 1.44289 47.8801 1.46601 49.7176 1.51106C52.1475 1.58508 54.3993 1.5594 56.7194 1.58996C57.1775 1.59638 57.6198 1.59529 58.043 1.58668C60.102 1.5298 62.3384 1.54186 64.6976 1.62257C65.2333 1.63423 65.7144 1.61997 66.1109 1.5807C66.5073 1.54143 66.8106 1.47798 67.0016 1.39434C67.0824 1.33693 67.0301 1.26237 66.8546 1.18503C66.5634 1.08626 66.2346 0.989492 65.8735 0.896312L52.741 0.583634C52.1894 0.567307 51.6515 0.558516 51.1301 0.557302C49.5963 0.554584 48.0154 0.530259 46.3951 0.48445C44.794 0.44142 43.2645 0.449058 41.7133 0.436103C41.2565 0.431763 40.7875 0.421523 40.3083 0.405413C37.0696 0.27791 33.9115 0.200034 30.8562 0.17234C29.5709 0.168411 28.1823 0.109895 26.8719 0.0909291C25.5615 0.0719612 23.7696 0.0650181 22.2151 0.0576252L17.4025 0.0587596C16.4559 0.0549871 15.5342 0.0662466 14.6159 0.0719466C13.5015 -0.334817 13.1174 -0.430158 11.6303 -0.608366C11.1216 -0.674103 10.6041 -0.713332 10.1386 -0.721461C8.66235 -0.689306 6.81009 -0.82316 5.4102 -0.805439C4.56549 -0.81418 3.84871 -0.768993 3.33325 -0.674502C2.88579 -0.600345 2.37412 -0.541666 1.80613 -0.499352C0.250213 -0.847328 0.113091 -1.07333 1.2835 -1.16128C1.6006 -1.18172 2.03739 -1.1754 2.26637 -1.2187C2.39776 -1.24507 2.57725 -1.26015 2.79054 -1.26276C3.00383 -1.26537 3.24501 -1.25543 3.49518 -1.23372C4.28472 -1.17678 5.02475 -1.16338 5.64101 -1.19489C6.22098 -1.23659 6.9319 -1.23492 7.70523 -1.19005C8.27349 -1.11967 8.77297 -1.21905 9.26441 -1.24776C9.75585 -1.27648 10.1591 -1.32805 10.9267 -1.2509C11.0673 -1.23554 11.2068 -1.22632 11.3346 -1.22394C11.4625 -1.22157 11.5752 -1.22611 11.6641 -1.23721C12.4885 -1.28689 13.4723 -1.28167 14.5356 -1.22197C16.1663 -1.16322 17.6963 -1.16102 19.0726 -1.21544C19.8964 -1.26305 20.5989 -1.34749 21.1524 -1.46546C21.3033 -1.50492 21.5273 -1.52858 21.803 -1.53417C23.1878 -1.50956 24.6913 -1.41692 26.2167 -1.26224C26.7914 -1.20026 27.3653 -1.15123 27.9262 -1.1162C29.079 -1.03839 30.194 -0.99479 31.2382 -0.986686C32.7554 -0.985402 34.3351 -0.955464 35.9633 -0.897142C36.968 -0.864669 37.9362 -0.852684 38.8563 -0.861316C39.802 -0.865385 40.8117 -0.840615 41.8625 -0.78758C42.9076 -0.744363 43.8285 -0.769263 44.5143 -0.85927C44.7402 -0.907771 44.9221 -0.965365 45.0566 -1.03098C43.5265 -1.24448 41.9441 -1.35299 40.6279 -1.33464C40.1279 -1.34879 39.7128 -1.33451 39.186 -1.41767L39.1695 -1.38985C39.0647 -1.3718 38.9065 -1.36755 38.7252 -1.37789C38.5438 -1.38824 38.352 -1.41246 38.1862 -1.44595C38.2488 -1.55166 38.3082 -1.6518 38.3511 -1.72413C39.3539 -1.71137 40.3276 -1.7124 41.2673 -1.72724C42.0593 -1.74858 43.1346 -1.56166 43.8201 -1.63202C45.1574 -1.54403 46.0088 -1.66552 47.208 -1.63046C48.4071 -1.59541 49.7279 -1.4796 50.9271 -1.44455C51.9735 -1.42531 52.9895 -1.42113 53.9695 -1.43202C54.3078 -1.44731 54.6977 -1.44373 55.1154 -1.42148C55.7026 -1.37963 56.2488 -1.37261 56.6913 -1.40125C57.1338 -1.42988 57.4547 -1.49301 57.6174 -1.58339C57.4642 -1.66805 57.2579 -1.77721 57.0199 -1.89029C57.4577 -1.98321 58.1225 -2.02233 58.9159 -2.00184L60.0369 -2.00633C60.3339 -2.00388 60.561 -2.029 60.6711 -2.07649C60.7813 -2.12399 60.7661 -2.19022 60.6286 -2.2615C58.5031 -2.62031 58.4248 -2.65986 56.8647 -2.42907L54.7934 -2.53632L54.8283 -2.53796ZM82.8451 -1.55232L82.6873 -1.57187L82.8451 -1.55232ZM340.978 36.623L340.942 36.6842L340.981 36.6174L341.328 36.6604L341.351 36.6215L340.978 36.623ZM290.557 9.799C290.067 9.73223 289.571 9.67085 289.074 9.61522C288.943 9.6066 288.822 9.60465 288.718 9.60954C288.615 9.61444 288.534 9.62602 288.481 9.64333C288.441 9.71009 288.719 9.75641 288.971 9.78769C289.29 9.82979 289.615 9.85655 289.914 9.8652C290.213 9.87384 290.474 9.86408 290.671 9.83689L290.956 9.81253L290.557 9.799ZM37.7375 26.0709C38.0607 26.0821 38.3671 26.084 38.6493 26.0763C39.9012 26.0224 41.0998 25.9439 42.3833 25.8938C44.0028 25.7668 45.8637 25.715 47.8962 25.7405C48.6903 25.753 49.3611 25.7118 49.8305 25.6218C50.1114 25.5735 50.4741 25.5452 50.8962 25.5388L56.2696 25.3921C56.6017 25.3617 56.8889 25.319 57.1243 25.2651C56.6508 25.2064 56.3351 25.1673 56.1457 25.1439C55.7526 25.1373 55.4148 25.1551 55.1661 25.1957C54.8989 25.2645 54.4473 25.2917 53.9009 25.2719C53.3494 25.2556 52.8115 25.2468 52.29 25.2456C51.3052 25.249 50.3138 25.2636 49.3257 25.2726C48.9412 25.4639 47.8066 25.3771 46.835 25.3583L46.0844 25.3668C43.6309 25.466 41.2872 25.6024 39.0648 25.7754C38.6352 25.8047 38.2652 25.8514 37.966 25.9141C37.8533 25.9629 37.8172 26.0239 37.8605 26.0921L37.7027 26.0725L37.7375 26.0709ZM147.301 44.3585C147.897 44.3715 148.516 44.3983 149.152 44.4384C149.641 44.4793 150.119 44.5042 150.565 44.5119C153.068 44.5548 155.676 44.6538 158.354 44.8077C158.704 44.831 159.04 44.8424 159.35 44.8415L161.542 44.8025C162.233 44.7805 162.246 44.7583 161.743 44.4631C161.326 44.4058 160.904 44.3535 160.48 44.3067C160.228 44.2754 159.818 44.2246 159.721 44.2724C159.136 44.4029 158.068 44.3184 157.169 44.2907C154.568 44.2194 151.886 44.1141 149.26 44.0277C148.704 44.0066 148.167 43.9959 147.652 43.9958C147.332 43.9914 147.041 43.9997 146.79 44.0205C146.717 44.0226 146.655 44.0288 146.61 44.0386C146.565 44.0484 146.536 44.0617 146.527 44.0774C146.517 44.0932 146.527 44.1112 146.556 44.1302C146.584 44.1491 146.63 44.1686 146.691 44.1874C146.906 44.2531 147.154 44.316 147.428 44.3741L147.301 44.3585ZM166.355 1.51677L168.917 1.48178C169.224 1.47802 169.485 1.43863 169.814 1.45548C171.568 1.50887 173.193 1.494 174.618 1.4115C175.103 1.37783 175.671 1.3711 176.29 1.39167C178.186 1.45264 179.974 1.45515 181.606 1.39912C182.661 1.38788 183.648 1.35012 184.553 1.2864C184.623 1.2716 184.666 1.25152 184.681 1.22752C184.695 1.20352 184.68 1.17616 184.636 1.14731C184.624 1.12908 184.593 1.10947 184.545 1.08984C184.496 1.07021 184.432 1.051 184.355 1.03356C184.278 1.01613 184.192 1.00087 184.101 0.988832C184.01 0.976795 183.918 0.968264 183.83 0.963837C182.686 0.877584 181.601 0.847537 180.662 0.876132C179.792 0.910345 178.855 0.920357 177.866 0.90601C176.919 0.902236 176.277 1.0138 175.107 0.928673C174.613 0.900639 174.176 0.909869 173.872 0.954812C173.259 1.02931 172.404 1.03345 171.459 0.966505C170.893 0.932625 170.353 0.918096 169.858 0.923471C168.657 0.947963 167.51 0.996964 166.398 1.04431C166.047 1.05527 165.671 1.05678 165.277 1.04881L159.706 0.956099C158.368 0.927658 157.032 0.893654 155.719 0.88025C154.644 0.851148 153.644 0.860262 152.754 0.907274C151.805 0.956684 150.771 0.976743 149.669 0.967073C147.959 0.994114 146.258 1.00445 144.396 1.00082C143.209 1.00305 141.993 0.995824 140.753 0.973551C140.125 0.944883 139.592 0.968228 139.257 1.03909C139.053 1.09743 138.573 1.0499 138.174 1.03636C136.048 0.905868 134.054 0.874949 132.331 0.945755C132.111 0.957295 131.87 0.961471 131.612 0.958215C129.953 0.955785 128.234 0.939968 126.642 0.939793C126.222 0.945295 125.828 0.96039 125.463 0.984888C125.502 1.02486 125.613 1.06818 125.774 1.10586C125.935 1.14355 126.132 1.17271 126.326 1.1873C127.832 1.29896 129.286 1.35795 130.628 1.36179C132.86 1.34756 135.199 1.37954 137.62 1.45739C139.498 1.53586 141.21 1.51934 142.63 1.40905C143.739 1.32675 145.183 1.35771 146.712 1.49662C147.366 1.56296 148.002 1.58949 148.531 1.57258C149.04 1.5504 149.624 1.55578 150.25 1.5884C151.568 1.65044 152.836 1.67922 154.028 1.67417C155.194 1.65134 156.281 1.58895 157.479 1.57002C158.676 1.55109 160.499 1.56194 161.976 1.52978C163.452 1.49763 164.912 1.49329 166.355 1.51677ZM60.1825 -1.73747C60.3178 -1.56545 60.7965 -1.45838 61.3116 -1.41251C63.0871 -1.20883 64.8425 -1.12216 66.283 -1.16704C67.0611 -1.22964 68.0985 -1.20554 69.1912 -1.09948C70.4635 -0.989229 71.6527 -0.970945 72.5493 -1.04785C72.769 -1.06129 72.9371 -1.0897 73.0389 -1.13054C73.0587 -1.16393 73.0949 -1.22512 73.1015 -1.23625C73.0073 -1.26447 72.8918 -1.29062 72.7639 -1.31267C72.6359 -1.33473 72.499 -1.35211 72.3637 -1.36347L66.4823 -1.56039L65.4574 -1.60372C63.5854 -1.71725 61.8016 -1.76247 60.1825 -1.73747ZM71.7511 0.985269C72.669 1.26617 72.6722 1.2606 73.1425 1.32481C75.4112 1.59153 77.6783 1.73552 79.6741 1.73963C80.1177 1.73881 80.4942 1.7117 80.7716 1.66056C80.9144 1.65363 81.0052 1.63161 81.0244 1.5993C81.0435 1.56699 80.9894 1.52701 80.8738 1.48809L80.1439 1.29019C78.8183 1.20452 77.5118 1.13645 76.2321 1.08638C74.7422 1.02726 73.4219 1.02498 71.8773 1.0009L71.7511 0.985269ZM147.191 43.1147C148.047 43.5013 148.05 43.4957 149.482 43.5954C150.48 43.6661 151.448 43.7076 152.357 43.7186C153.468 43.7308 154.607 43.7525 155.715 43.7702C155.986 43.7826 156.215 43.7723 156.359 43.7416C156.502 43.7108 156.55 43.6616 156.492 43.6037C156.346 43.5407 156.119 43.4799 155.846 43.4309C155.574 43.382 155.272 43.3479 154.991 43.3342L154.386 43.325C153.652 43.3057 152.89 43.277 152.181 43.2728C151.721 43.2888 151.188 43.2764 150.623 43.2366C150.059 43.1967 149.479 43.1305 148.928 43.0431L147.191 43.1147ZM76.3183 -1.23198C76.5467 -1.16503 76.805 -1.10091 77.0863 -1.04131C78.1757 -0.876142 79.3287 -0.782331 80.3192 -0.778271C80.7876 -0.76804 81.2159 -0.804572 81.6927 -0.751484C82.548 -0.680545 83.3768 -0.642757 84.1345 -0.640165C84.1345 -0.640165 84.3469 -0.655655 84.4167 -0.658963L84.5618 -0.903759C84.2031 -0.960468 83.829 -1.0068 83.4568 -1.04061C82.2077 -1.10574 80.9802 -1.15027 79.7561 -1.20036C78.5319 -1.25045 78.1051 -1.27346 77.3045 -1.29497C76.9474 -1.28315 76.6171 -1.26205 76.3183 -1.23198ZM49.268 29.201L50.9027 29.702C51.4317 29.7456 51.9258 29.7534 52.31 29.7245C52.6942 29.6955 52.9473 29.6313 53.0309 29.5416C53.1655 29.4996 53.179 29.4374 53.0685 29.3681C52.958 29.2987 52.732 29.2276 52.4381 29.1696C52.1552 29.1008 51.8323 29.0392 51.4893 28.9885C51.1462 28.9378 50.7905 28.8991 50.4441 28.8748L49.268 29.201ZM62.8782 26.7063C61.809 26.6213 60.7864 26.5866 59.8885 26.6047C59.3228 26.6544 58.5563 26.6386 57.7461 26.5603C56.2727 26.4045 54.8523 26.3613 53.7848 26.44C53.7848 26.44 53.7452 26.5067 53.5642 26.5261C53.3833 26.5455 54.1009 26.5926 54.2588 26.6122C55.4165 26.66 56.5808 26.6967 57.5873 26.7139C58.2121 26.7131 58.873 26.7289 59.5587 26.761C60.5021 26.8104 61.3967 26.8264 62.2077 26.8084C62.2077 26.8084 62.5215 26.7935 62.8749 26.7118L62.8782 26.7063ZM177.059 0.609016C176.548 0.514654 175.995 0.437962 175.439 0.384696C174.884 0.331432 174.341 0.302981 173.853 0.301465C173.478 0.296542 173.175 0.321456 172.992 0.37227C172.808 0.423082 172.754 0.496896 172.839 0.582037C173.218 0.628957 173.723 0.691517 174.007 0.726707C174.992 0.723263 175.832 0.678016 177.059 0.609016ZM272.653 8.56089C272.243 8.48493 271.792 8.42685 271.351 8.39329C270.909 8.35973 270.495 8.35204 270.156 8.37109C269.982 8.37936 270.1 8.46567 270.071 8.51575C270.051 8.5271 270.052 8.54122 270.071 8.55663C270.091 8.57204 270.13 8.58817 270.183 8.60333C270.237 8.61849 270.303 8.63212 270.375 8.64279C270.447 8.65347 270.522 8.6608 270.593 8.66401C271.037 8.69674 271.457 8.70648 271.814 8.69237C272.171 8.67825 272.455 8.64073 272.64 8.58315L272.653 8.56089ZM279.058 9.64679C278.995 9.60196 278.86 9.55525 278.678 9.5152C278.497 9.47515 278.28 9.44445 278.069 9.42875C277.696 9.42664 277.357 9.43907 277.065 9.46557C276.747 9.48601 276.976 9.61579 277.404 9.69279C277.586 9.72369 277.78 9.7478 277.971 9.76319C278.162 9.77858 278.345 9.78483 278.505 9.78145C278.665 9.77806 278.797 9.76513 278.892 9.74369C278.987 9.72224 279.042 9.69288 279.052 9.65792L279.058 9.64679ZM92.9456 -0.755217C91.99 -0.915374 91.2545 -0.875082 90.4455 -0.939453C89.6364 -1.00382 89.4371 -1.0106 89.5455 -0.907591C89.6539 -0.804588 90.2085 -0.825477 90.5558 -0.782466C91.025 -0.725395 91.497 -0.692624 91.919 -0.687811C92.3411 -0.682997 92.6966 -0.706337 92.9456 -0.755217ZM292.071 26.3435C291.565 26.3076 291.069 26.2822 290.591 26.2677C290.528 26.2826 290.488 26.3021 290.475 26.325C290.461 26.348 290.474 26.3739 290.512 26.4013C290.512 26.4013 290.836 26.4832 291.025 26.5067C291.723 26.5871 291.757 26.4719 292.071 26.3435ZM363.608 41.2652C363.951 41.3733 364.111 41.4468 364.385 41.4987C364.511 41.5167 364.641 41.5298 364.766 41.537C364.891 41.5442 365.007 41.5453 365.106 41.5402C365.226 41.5091 365.255 41.4614 365.185 41.4067C365.185 41.4067 364.836 41.3097 364.703 41.3052C364.324 41.2823 363.956 41.2689 363.608 41.2652ZM76.6801 -1.6709C75.954 -1.76083 75.2594 -1.84686 74.7567 -1.74191C75.9097 -1.62897 75.9098 -1.62896 76.6801 -1.6709ZM88.4406 -0.644315C87.7074 -0.836646 87.2772 -0.8541 86.9252 -0.832001C86.8504 -0.826436 86.8009 -0.81403 86.7842 -0.796667C86.7675 -0.779306 86.7845 -0.757932 86.8326 -0.735775C86.8807 -0.713619 86.9574 -0.69189 87.0509 -0.673871C87.1445 -0.655853 87.2499 -0.642528 87.3512 -0.635913C87.7336 -0.630376 88.0982 -0.633187 88.4406 -0.644315ZM126.177 -0.562985C126.193 -0.590803 126.213 -0.624184 126.024 -0.647644C125.974 -0.659554 125.916 -0.669795 125.855 -0.677345C125.794 -0.684895 125.732 -0.689482 125.677 -0.69065C125.677 -0.69065 125.657 -0.657267 125.644 -0.635013L126.177 -0.562985ZM152.382 45.6208L151.96 45.6462L152.15 45.6696L152.65 45.6838L152.382 45.6208ZM300.868 9.21272C300.71 9.19317 300.552 9.17362 300.529 9.21257C300.496 9.21859 300.475 9.2273 300.469 9.23795C300.462 9.24859 300.471 9.26087 300.493 9.27376C300.493 9.27376 300.714 9.30114 300.808 9.31287L300.868 9.21272ZM276.284 9.5242C276.18 9.52197 276.087 9.52458 276.009 9.53187L275.989 9.56525L276.305 9.60435L276.284 9.5242ZM62.0444 17.4779C61.9225 17.4576 61.7932 17.4416 61.6656 17.431L61.5077 17.4114C61.5077 17.4114 61.6773 17.4683 61.772 17.48C61.8667 17.4917 61.9431 17.4773 62.0444 17.4779Z" fill="#DF6951"/>
</svg>
