<?xml version="1.0" standalone="no"?>
<!DOCTYPE svg PUBLIC "-//W3C//DTD SVG 1.0//EN" "http://www.w3.org/TR/2001/REC-SVG-20010904/DTD/svg10.dtd">
<svg xmlns="http://www.w3.org/2000/svg" xmlns:xlink="http://www.w3.org/1999/xlink" id="body_1" width="400" height="409">

<g transform="matrix(1.3986014 0 0 1.3986014 -0 0.3041941)">
    <path d="M269.8183 196.32C 269.8183 221.67079 260.85547 243.30904 242.92973 261.23474C 225.00403 279.16046 203.36578 288.1233 178.015 288.1233C 152.66422 288.1233 131.02597 279.16046 113.100266 261.23474C 95.17456 243.30904 86.2117 221.67079 86.2117 196.32C 86.2117 170.96924 95.17456 149.331 113.100266 131.40527C 131.02597 113.47957 152.66422 104.516716 178.015 104.51671C 203.36578 104.516716 225.00403 113.47957 242.92973 131.40527C 260.85547 149.331 269.8183 170.96924 269.8183 196.32C 269.8183 197.3883 269.79968 198.45627 269.7624 199.5239" stroke="#6246E5" stroke-width="1" fill="none" />
    <path d="M273.462 186.604C 273.46204 214.97322 263.43198 239.18787 243.3719 259.24792C 223.31186 279.30798 199.09721 289.338 170.728 289.338C 142.3588 289.338 118.14415 279.30798 98.08409 259.24792C 78.02403 239.18787 67.993996 214.97322 67.993996 186.604C 67.993996 158.2348 78.02403 134.02017 98.08409 113.9601C 118.14415 93.90004 142.3588 83.87001 170.728 83.87C 199.09721 83.87001 223.31186 93.90004 243.3719 113.9601C 263.43198 134.02017 273.46204 158.2348 273.462 186.604C 273.46204 187.7995 273.44116 188.99461 273.3994 190.18936" stroke="#6246E5" stroke-width="1" fill="none" />
    <path d="M277.10498 178.71C 277.10498 209.76224 266.1264 236.26695 244.16916 258.22415C 222.21193 280.1814 195.70721 291.16 164.655 291.16C 133.60278 291.16 107.09807 280.1814 85.14085 258.22415C 63.18362 236.26695 52.205006 209.76224 52.205 178.71C 52.205006 147.65779 63.18362 121.153076 85.14085 99.195854C 107.09807 77.238625 133.60278 66.26001 164.655 66.26001C 195.70721 66.26001 222.21193 77.238625 244.16916 99.195854C 266.1264 121.153076 277.10498 147.65779 277.10498 178.71C 277.10498 180.01857 277.08215 181.32672 277.0365 182.63446" stroke="#6246E5" stroke-width="1" fill="none" />
    <path d="M279.535 167.171C 279.535 200.57098 267.72632 229.07965 244.10898 252.69699C 220.49164 276.31433 191.98297 288.12302 158.583 288.12302C 125.18302 288.12302 96.67436 276.31433 73.057014 252.69699C 49.439667 229.07965 37.63099 200.57098 37.63099 167.171C 37.63099 133.77103 49.439667 105.262375 73.057014 81.64503C 96.67436 58.02768 125.18302 46.219 158.583 46.219C 191.98297 46.219 220.49164 58.02768 244.10898 81.64503C 267.72632 105.262375 279.535 133.77103 279.535 167.171C 279.535 168.57849 279.51044 169.98553 279.4613 171.39217" stroke="#6246E5" stroke-width="1" fill="none" />
    <path d="M281.964 155.937C 281.964 191.6008 269.35495 222.04175 244.13684 247.25983C 218.91875 272.47794 188.4778 285.08698 152.814 285.08698C 117.15021 285.08698 86.70927 272.47794 61.491158 247.25983C 36.273056 222.04175 23.664001 191.6008 23.664001 155.937C 23.664001 120.27321 36.273056 89.83227 61.491158 64.61416C 86.70927 39.396057 117.15021 26.787003 152.814 26.787003C 188.4778 26.787003 218.91875 39.396057 244.13684 64.61416C 269.35495 89.83227 281.964 120.27321 281.964 155.937C 281.964 157.43988 281.93777 158.94229 281.8853 160.44426" stroke="#6246E5" stroke-width="1" fill="none" />
    <path d="M285 143.185C 285 182.37015 271.14597 215.81677 243.43787 243.52486C 215.7298 271.23294 182.28317 285.08698 143.098 285.08698C 103.91286 285.08698 70.46624 271.23294 42.75815 243.52486C 15.050059 215.81677 1.1960144 182.37015 1.1960144 143.185C 1.1960144 103.99985 15.050059 70.55323 42.75815 42.84514C 70.46624 15.13705 103.91286 1.2830048 143.098 1.2830048C 182.28317 1.2830048 215.7298 15.13705 243.43787 42.84514C 271.14597 70.55323 285 103.99985 285 143.185C 285 144.83627 284.9712 146.48705 284.91357 148.1373" stroke="#6246E5" stroke-width="1" fill="none" />
</g>
</svg>